<?xml version="1.0" encoding="UTF-8"?>
<svg width="600px" height="199px" viewBox="-10 -10 657 219" version="1.1" xmlns="http://www.w3.org/2000/svg" xmlns:xlink="http://www.w3.org/1999/xlink">
    <!-- Generator: Sketch 53.2 (72643) - https://sketchapp.com -->
    <title>tengri</title>
    <desc>Created with Sketch</desc>
    <defs>
        <linearGradient x1="50%" y1="0%" x2="50%" y2="100%" id="linearGradient-1">
            <stop stop-color="#4CAF50" offset="0%"></stop>
            <stop stop-color="#4CAF50" offset="0%"></stop>
        </linearGradient>
    </defs>
    <g id="Page-2" stroke="none" stroke-width="1" fill="none" fill-rule="evenodd">
        <path d="M131.196,6.4 C131.196,6.57866756 129.141354,8.27598392 125.032,11.492 C120.922646,14.7080161 118.421338,17.119992 117.528,18.728 C116.277327,21.586681 115.026673,24.3559866 113.776,27.036 C111.631989,31.502689 110.024005,33.736 108.952,33.736 C97.6959437,20.335933 88.4947024,13.636 81.348,13.636 C79.0253217,13.636 77.864,17.1199652 77.864,24.088 C77.864,31.0560348 77.9979987,41.5525965 78.266,55.578 C78.5340013,69.6034035 78.668,80.0999652 78.668,87.068 C78.668,148.708308 80.2759839,184.530617 83.492,194.536 C82.9559973,194.893335 82.0626729,195.072 80.812,195.072 C79.5613271,195.072 77.5513472,194.893335 74.782,194.536 C72.0126528,194.178665 69.9133405,194 68.484,194 C67.0546595,194 64.6873499,194.267997 61.382,194.804 C58.0766501,195.340003 55.5306756,195.608 53.744,195.608 C53.744,195.250665 53.6546676,194.580672 53.476,193.598 C53.2973324,192.615328 53.208,191.945335 53.208,191.588 C53.208,190.87333 53.4759973,189.756674 54.012,188.238 C54.5480027,186.719326 54.816,185.692003 54.816,185.156 C55.3520027,180.689311 55.8879973,172.649391 56.424,161.036 C57.3173378,138.523887 57.764,112.528147 57.764,83.048 C57.764,75.9012976 57.6300013,65.3154035 57.362,51.29 C57.0939987,37.2645965 56.96,26.7680348 56.96,19.8 C56.96,16.0479812 55.9773432,14.172 54.012,14.172 C46.68663,14.172 36.1454021,20.1572735 22.388,32.128 C22.2093324,31.7706649 19.082697,27.2147104 13.008,18.46 C9.61331636,13.6359759 5.59335656,9.97334584 0.948,7.472 L1.484,4.792 C7.02269436,4.792 15.2859451,4.70266756 26.274,4.524 C37.2620549,4.34533244 45.5253056,4.256 51.064,4.256 L129.588,4.256 L131.196,6.4 Z M224.46,194.536 C222.851992,195.608005 221.780003,196.144 221.244,196.144 C218.563987,196.144 214.320696,195.831336 208.514,195.206 C202.707304,194.580664 198.285349,194.268 195.248,194.268 L169.52,194.268 C166.839987,194.268 162.775361,194.580664 157.326,195.206 C151.876639,195.831336 147.722681,196.144 144.864,196.144 C142.362654,196.144 141.112,195.072011 141.112,192.928 C141.112,183.815954 141.46933,172.024072 142.184,157.552 C143.077338,138.613239 143.613332,126.732024 143.792,121.908 C144.685338,91.7131824 145.132,60.8041581 145.132,29.18 C145.132,26.6786542 144.819336,22.8820255 144.194,17.79 C143.568664,12.6979745 143.256,8.90134584 143.256,6.4 C143.256,3.54131904 144.595987,2.112 147.276,2.112 L186.404,2.112 C206.950769,2.112 217.224,3.27332172 217.224,5.596 C217.224,5.77466756 215.035355,8.72263808 210.658,14.44 C206.280645,20.1573619 203.824003,23.5519946 203.288,24.624 C201.501324,28.0186836 200.518668,29.716 200.34,29.716 L194.98,24.088 C193.55066,21.229319 189.977362,18.9066756 184.26,17.12 C179.257308,15.511992 174.790686,14.708 170.86,14.708 C169.073324,14.708 167.733338,15.2439946 166.84,16.316 C164.874657,18.8173458 163.892,40.7037936 163.892,81.976 C165.500008,81.4399973 169.6093,79.6533485 176.22,76.616 C181.044024,74.1146542 185.331981,72.864 189.084,72.864 C196.052035,72.864 204.806614,78.4026113 215.348,89.48 C208.915968,92.6960161 199.089399,97.8772976 185.868,105.024 C182.830651,96.6266247 176.309383,92.428 166.304,92.428 C164.695992,92.428 163.892,93.4106568 163.892,95.376 C162.998662,103.41604 162.552,127.982461 162.552,169.076 C162.552,178.902716 163.534657,183.816 165.5,183.816 C167.644011,183.816 172.37863,182.654678 179.704,180.332 C186.3147,178.187989 190.781322,176.490673 193.104,175.24 C198.285359,171.845316 200.786668,170.148 200.608,170.148 C208.290705,181.940059 214.901306,189.175987 220.44,191.856 C221.690673,192.213335 223.03066,193.10666 224.46,194.536 Z M271.36,117.084 L271.36,139.596 C271.36,142.454681 271.181335,146.742638 270.824,152.46 C270.466665,158.177362 270.288,162.465319 270.288,165.324 C270.288,167.646678 270.421999,171.085977 270.69,175.642 C270.958001,180.198023 271.092,183.637322 271.092,185.96 C271.092,190.248021 270.958001,192.927995 270.69,194 C270.421999,195.072005 269.57334,195.608 268.144,195.608 C267.786665,195.608 266.625343,195.518668 264.66,195.34 C262.694657,195.161332 260.908008,195.072 259.3,195.072 C258.406662,195.072 257.066676,195.250665 255.28,195.608 C253.493324,195.965335 252.24267,196.144 251.528,196.144 C250.09866,196.144 249.294668,195.42934 249.116,194 C248.579997,189.533311 248.222668,184.352029 248.044,178.456 C248.044,174.525314 248.133332,169.165367 248.312,162.376 C248.490668,154.693295 248.58,149.422681 248.58,146.564 C248.58,138.166625 248.669332,125.615417 248.848,108.91 C249.026668,92.2045831 249.116,79.7427078 249.116,71.524 C249.116,40.9718472 248.669338,24.3113472 247.776,21.542 C246.882662,18.7726528 244.247355,15.6906836 239.87,12.296 C235.492645,8.90131636 233.393332,6.13201072 233.572,3.988 L240.272,3.72 L252.6,3.988 C252.242665,3.80933244 256.351957,3.72 264.928,3.72 C268.680019,3.72 271.181327,4.34532708 272.432,5.596 L271.628,24.892 C276.094689,27.0360107 282.70529,30.5199759 291.46,35.344 C300.036043,41.0613619 312.989247,49.4586113 330.32,60.536 C330.677335,51.7812896 330.320005,38.7387533 329.248,21.408 C328.711997,18.549319 326.166023,15.5120161 321.61,12.296 C317.053977,9.07998392 314.776,6.31067828 314.776,3.988 C317.992016,3.80933244 327.63992,3.72 343.72,3.72 C348.901359,3.72 352.20666,4.25599464 353.636,5.328 L353.904,8.544 C354.082668,10.3306756 353.948669,12.8319839 353.502,16.048 C353.055331,19.2640161 352.832,21.5866595 352.832,23.016 L352.296,186.496 C352.296,192.213362 351.849338,195.072 350.956,195.072 C350.777332,195.072 350.107339,194.982668 348.946,194.804 C347.784661,194.625332 346.668005,194.536 345.596,194.536 C344.16666,194.536 342.067347,194.714665 339.298,195.072 C336.528653,195.429335 334.518673,195.608 333.268,195.608 C331.302657,195.608 330.32,195.072005 330.32,194 C330.32,186.67463 330.67733,175.597407 331.392,160.768 C332.10667,145.938593 332.464,134.86137 332.464,127.536 C332.464,116.458611 332.10667,100.378772 331.392,79.296 C308.879887,63.9305898 289.405416,52.58537 272.968,45.26 C272.968,52.0493673 272.700003,64.0199142 272.164,81.172 C271.627997,96.3587426 271.36,108.32929 271.36,117.084 Z M461.64,195.072 C452.527954,194.714665 425.28156,194.536 379.9,194.536 C378.113324,194.536 375.254686,194.000005 371.324,192.928 C372.03867,187.567973 372.396,179.528054 372.396,168.808 C372.396,162.375968 372.708664,152.772731 373.334,139.998 C373.959336,127.223269 374.272,117.709365 374.272,111.456 L374.54,46.868 C374.182665,38.2919571 374.004,25.4280858 374.004,8.276 C374.004,5.05998392 374.897324,3.09467024 376.684,2.38 C377.39867,2.02266488 379.899979,1.844 384.188,1.844 C392.94271,1.844 404.734593,2.02266488 419.564,2.38 C436.894753,2.91600268 448.597303,3.184 454.672,3.184 C455.744005,3.72000268 457.351989,4.70265952 459.496,6.132 C457.351989,8.99068096 454.404019,13.457303 450.652,19.532 C449.579995,23.2840188 447.436016,28.7332976 444.22,35.88 L429.748,21.408 C423.851971,16.5839759 417.5987,14.172 410.988,14.172 C405.091971,14.172 400.759347,14.7973271 397.99,16.048 C395.220653,17.2986729 393.836,19.7106488 393.836,23.284 C393.836,29.7160322 393.969999,39.1852708 394.238,51.692 C394.506001,64.1987292 394.64,73.5786354 394.64,79.832 C394.64,85.3706944 394.416669,93.6786113 393.97,104.756 C393.523331,115.833389 393.3,124.141306 393.3,129.68 C393.3,156.122799 393.746662,171.35398 394.64,175.374 C395.533338,179.39402 399.910627,181.404 407.772,181.404 C425.817424,181.404 437.877303,180.68934 443.952,179.26 C445.738676,171.93463 446.632,159.696086 446.632,142.544 C446.632,132.002614 446.364003,124.052027 445.828,118.692 C444.755995,107.614611 442.165354,99.038697 438.056,92.964 C437.519997,92.2493298 436.046012,90.9986756 433.634,89.212 C431.221988,87.4253244 430.016,86.0853378 430.016,85.192 C430.016,85.0133324 433.053303,83.8520107 439.128,81.708 C441.986681,80.6359946 446.631968,78.0006877 453.064,73.802 C459.496032,69.6033123 463.605324,66.4320107 465.392,64.288 C462.890654,76.2587265 461.64,90.9985791 461.64,108.508 C461.64,113.510692 461.773999,121.014617 462.042,131.02 C462.310001,141.025383 462.444,148.529308 462.444,153.532 C462.444,153.353332 462.176003,167.199861 461.64,195.072 Z M589.476,197.484 C588.04666,197.841335 585.813349,198.02 582.776,198.02 C579.559984,198.02 573.485378,197.573338 564.552,196.68 C556.690627,195.786662 550.526689,195.518665 546.06,195.876 L546.06,194.268 C546.06,192.481324 546.908658,189.980016 548.606,186.764 C550.303342,183.547984 551.152,181.136008 551.152,179.528 C551.152,177.026654 544.452067,166.932088 531.052,149.244 C522.654625,138.345279 514.168043,127.446721 505.592,116.548 C504.87733,120.478686 504.52,125.034641 504.52,130.216 C504.341332,133.968019 504.341332,138.881303 504.52,144.956 C504.698668,152.28137 504.788,156.926657 504.788,158.892 C504.788,160.857343 504.921999,163.894646 505.19,168.004 C505.458001,172.113354 505.592,175.105991 505.592,176.982 C505.592,178.858009 506.172661,181.537983 507.334,185.022 C508.495339,188.506017 509.076,191.141324 509.076,192.928 C509.076,194.893343 501.482743,195.876 486.296,195.876 C482.722649,195.876 480.936,194.625346 480.936,192.124 C480.936,187.121308 481.337996,179.617383 482.142,169.612 C482.946004,159.606617 483.348,152.102692 483.348,147.1 L483.08,9.884 C483.08,4.70264076 483.883992,1.48667292 485.492,0.236 L557.048,0.236 C560.442684,0.236 562.631328,0.9059933 563.614,2.246 C564.596672,3.5860067 565.088,6.13198124 565.088,9.884 L565.088,45.26 C565.088,59.3747372 564.73067,67.7719866 564.016,70.452 C559.549311,74.2040188 551.688056,81.2612815 540.432,91.624 C527.389268,103.594727 520.778668,110.29466 520.6,111.724 C532.928062,126.196072 551.062547,148.08252 575.004,177.384 C577.862681,180.242681 580.631987,183.101319 583.312,185.96 C587.421354,190.248021 589.476,193.285324 589.476,195.072 L589.476,197.484 Z M539.092,13.1 C535.875984,13.1 531.052032,13.2339987 524.62,13.502 C518.187968,13.7700013 513.408682,13.904 510.282,13.904 C507.155318,13.904 505.592,14.6186595 505.592,16.048 L505.592,105.024 C507.378676,104.845332 513.899944,99.3067212 525.156,88.408 C536.412056,77.5092788 543.022657,70.5413485 544.988,67.504 C545.70267,63.3946461 546.06,57.3200402 546.06,49.28 C546.06,37.8452762 545.970668,30.9666783 545.792,28.644 C544.898662,18.2812815 542.665351,13.1 539.092,13.1 Z M634.768,184.084 C634.768,191.40937 633.785343,195.072 631.82,195.072 C630.033324,195.072 627.308685,194.982668 623.646,194.804 C619.983315,194.625332 617.303342,194.536 615.606,194.536 C613.908658,194.536 612.970668,193.82134 612.792,192.392 C612.255997,184.35196 612.166665,173.542735 612.524,159.964 C613.23867,141.918576 613.596,130.975353 613.596,127.134 C613.596,123.292647 613.685332,111.456099 613.864,91.624 C614.042668,76.7945925 614.042668,64.6453807 613.864,55.176 C613.685332,41.9546006 612.970673,30.073386 611.72,19.532 C611.362665,16.3159839 608.81669,13.3233472 604.082,10.554 C599.34731,7.78465282 597.069332,5.0600134 597.248,2.38 L602.608,2.112 L627.264,2.112 C631.016019,2.112 633.963989,2.64799464 636.108,3.72 C634.499992,25.3387748 633.696,50.6198553 633.696,79.564 C633.696,91.1773914 633.874665,108.597217 634.232,131.824 C634.589335,155.050783 634.768,172.470609 634.768,184.084 Z" id="tengri" fill="url(#linearGradient-1)" fill-rule="nonzero"></path>
    </g>
</svg>
