<?xml version="1.0" encoding="UTF-8"?>
<svg width="350px" height="350px" viewBox="-20 -20 290 328" version="1.1" xmlns="http://www.w3.org/2000/svg" xmlns:xlink="http://www.w3.org/1999/xlink">
    <!-- Generator: Sketch 53.2 (72643) - https://sketchapp.com -->
    <title>Combined Shape</title>
    <desc>Created with Sketch</desc>
    <defs>
        <linearGradient x1="50%" y1="1.12700591%" x2="50%" y2="100%" id="linearGradient-1">
            <stop stop-color="#4CAF50" offset="0%"></stop>
            <stop stop-color="#4CAF50" offset="0%"></stop>
        </linearGradient>
    </defs>
    <g id="Page-2" stroke="none" stroke-width="1" fill="none" fill-rule="evenodd">
        <path d="M76.9521491,40.7404397 L125,13 L173.166561,40.8089768 L125.631364,72.6808263 L131.896816,76.7918412 L125.631364,72.6808263 L173.166561,40.8089768 L238.449328,78.5 L238.449328,209.5 L125,275 L11.5506721,209.5 L11.5506721,78.5 L76.9521491,40.7404397 L125.631364,72.6808263 L119.5,76.7918412 L125.631364,72.6808263 L76.9521491,40.7404397 Z M77.9446846,96.481077 L76.5,95.5 L77.9446846,96.481077 L83.8916609,93.3308285 L77.9446846,96.481077 L98.0588606,110.140498 L97.9851286,104.5 L98.0588606,110.140498 L102.585927,113.214803 L98.0588606,110.140498 L99.9851284,257.5 L98.0588606,110.140498 L77.9446846,96.481077 L17.5,128.5 L77.9446846,96.481077 Z M174.212506,96.3366802 L178.93506,93.5 L174.212506,96.3366802 L169.115914,93.4648031 L174.212506,96.3366802 L152.728416,109.241453 L152.790396,104.5 L152.728416,109.241453 L148.446931,111.813197 L152.728416,109.241453 L150.790396,257.5 L152.728416,109.241453 L174.212506,96.3366802 L235.5,130.871554 L174.212506,96.3366802 Z" id="Combined-Shape" stroke="url(#linearGradient-1)" stroke-width="22"></path>
    </g>
</svg>
